{
	"asset":{
		"generator":"Khronos glTF Blender I/O v4.1.63",
		"version":"2.0"
	},
	"scene":0,
	"scenes":[
		{
			"name":"Scene",
			"nodes":[
				0,
				1,
				2,
				3,
				4,
				5,
				6
			]
		}
	],
	"nodes":[
		{
			"mesh":0,
			"name":"Cone",
			"translation":[
				-0.042089156806468964,
				0.9349409341812134,
				-0.0004216507077217102
			]
		},
		{
			"mesh":1,
			"name":"Cubo",
			"scale":[
				0.4472135901451111,
				0.4472135901451111,
				0.4472135901451111
			],
			"translation":[
				-0.009070148691534996,
				1.7596595287322998,
				0.0032324790954589844
			]
		},
		{
			"mesh":2,
			"name":"Cilindro",
			"rotation":[
				-0.5123405456542969,
				-0.4885447323322296,
				-0.24707359075546265,
				0.6616538763046265
			],
			"scale":[
				0.14898131787776947,
				0.5589812994003296,
				0.10898132622241974
			],
			"translation":[
				-0.8899766206741333,
				0.6542016267776489,
				0.14399871230125427
			]
		},
		{
			"mesh":3,
			"name":"Cilindro.001",
			"rotation":[
				0.08537114411592484,
				-0.025316549465060234,
				-0.7423422336578369,
				0.6640775799751282
			],
			"scale":[
				0.11898132413625717,
				0.6689813733100891,
				0.07898132503032684
			],
			"translation":[
				0.8344192504882812,
				0.7482677698135376,
				-0.007356591522693634
			]
		},
		{
			"mesh":4,
			"name":"Opera Instant\u00e2neo_2024-06-15_175554_web.whatsapp.com",
			"rotation":[
				0.6996433138847351,
				0.09191576391458511,
				0.04397159814834595,
				0.7071897387504578
			],
			"translation":[
				-0.024321962147951126,
				1.7935632467269897,
				0.4899071455001831
			]
		},
		{
			"mesh":5,
			"name":"Cilindro.002",
			"rotation":[
				-0.3048287034034729,
				-0.25388067960739136,
				-0.05590460076928139,
				0.9162416458129883
			],
			"scale":[
				0.11898132413625717,
				0.6689813733100891,
				0.07898133248090744
			],
			"translation":[
				-0.5387643575668335,
				-0.2279386669397354,
				0.38124629855155945
			]
		},
		{
			"mesh":6,
			"name":"Cilindro.003",
			"rotation":[
				-0.2707729935646057,
				0.38690078258514404,
				0.1507575362920761,
				0.8684825301170349
			],
			"scale":[
				0.11898133158683777,
				0.6689813733100891,
				0.07898133993148804
			],
			"translation":[
				0.5271638035774231,
				-0.1405731439590454,
				0.15991778671741486
			]
		}
	],
	"materials":[
		{
			"doubleSided":true,
			"name":"Materiais.001",
			"pbrMetallicRoughness":{
				"baseColorFactor":[
					0.8009926080703735,
					0.16410884261131287,
					0.25405216217041016,
					1
				],
				"metallicFactor":0,
				"roughnessFactor":0.5
			}
		},
		{
			"doubleSided":true,
			"name":"Materiais",
			"pbrMetallicRoughness":{
				"baseColorFactor":[
					0.09129630774259567,
					0.33994433283805847,
					0.8007591962814331,
					1
				],
				"metallicFactor":0,
				"roughnessFactor":0.5
			}
		},
		{
			"doubleSided":true,
			"name":"Materiais.002",
			"pbrMetallicRoughness":{
				"baseColorTexture":{
					"index":0
				},
				"metallicFactor":0.19834710657596588,
				"roughnessFactor":0.5
			}
		},
		{
			"alphaMode":"BLEND",
			"doubleSided":true,
			"name":"Opera Instant\u00e2neo_2024-06-15_175554_web.whatsapp.com",
			"pbrMetallicRoughness":{
				"baseColorTexture":{
					"index":1
				},
				"metallicFactor":0,
				"roughnessFactor":0.5
			}
		}
	],
	"meshes":[
		{
			"name":"Cone",
			"primitives":[
				{
					"attributes":{
						"POSITION":0,
						"NORMAL":1,
						"TEXCOORD_0":2
					},
					"indices":3,
					"material":0
				}
			]
		},
		{
			"name":"Cubo",
			"primitives":[
				{
					"attributes":{
						"POSITION":4,
						"NORMAL":5,
						"TEXCOORD_0":6
					},
					"indices":7,
					"material":1
				},
				{
					"attributes":{
						"POSITION":8,
						"NORMAL":9,
						"TEXCOORD_0":10
					},
					"indices":11,
					"material":2
				}
			]
		},
		{
			"name":"Cilindro",
			"primitives":[
				{
					"attributes":{
						"POSITION":12,
						"NORMAL":13,
						"TEXCOORD_0":14
					},
					"indices":15
				}
			]
		},
		{
			"name":"Cilindro.001",
			"primitives":[
				{
					"attributes":{
						"POSITION":16,
						"NORMAL":17,
						"TEXCOORD_0":18
					},
					"indices":15
				}
			]
		},
		{
			"name":"Opera Instant\u00e2neo_2024-06-15_175554_web.whatsapp.com",
			"primitives":[
				{
					"attributes":{
						"POSITION":19,
						"NORMAL":20,
						"TEXCOORD_0":21
					},
					"indices":22,
					"material":3
				}
			]
		},
		{
			"name":"Cilindro.002",
			"primitives":[
				{
					"attributes":{
						"POSITION":23,
						"NORMAL":24,
						"TEXCOORD_0":25
					},
					"indices":15
				}
			]
		},
		{
			"name":"Cilindro.003",
			"primitives":[
				{
					"attributes":{
						"POSITION":26,
						"NORMAL":27,
						"TEXCOORD_0":28
					},
					"indices":15
				}
			]
		}
	],
	"textures":[
		{
			"sampler":0,
			"source":0
		},
		{
			"sampler":1,
			"source":0
		}
	],
	"images":[
		{
			"mimeType":"image/png",
			"name":"Imagem",
			"uri":"Imagem.png"
		}
	],
	"accessors":[
		{
			"bufferView":0,
			"componentType":5126,
			"count":128,
			"max":[
				1,
				1,
				1
			],
			"min":[
				-1,
				-1,
				-1
			],
			"type":"VEC3"
		},
		{
			"bufferView":1,
			"componentType":5126,
			"count":128,
			"type":"VEC3"
		},
		{
			"bufferView":2,
			"componentType":5126,
			"count":128,
			"type":"VEC2"
		},
		{
			"bufferView":3,
			"componentType":5123,
			"count":186,
			"type":"SCALAR"
		},
		{
			"bufferView":4,
			"componentType":5126,
			"count":20,
			"max":[
				1,
				1,
				1
			],
			"min":[
				-1,
				-1,
				-1
			],
			"type":"VEC3"
		},
		{
			"bufferView":5,
			"componentType":5126,
			"count":20,
			"type":"VEC3"
		},
		{
			"bufferView":6,
			"componentType":5126,
			"count":20,
			"type":"VEC2"
		},
		{
			"bufferView":7,
			"componentType":5123,
			"count":30,
			"type":"SCALAR"
		},
		{
			"bufferView":8,
			"componentType":5126,
			"count":4,
			"max":[
				1,
				1,
				1
			],
			"min":[
				-1,
				-1,
				1
			],
			"type":"VEC3"
		},
		{
			"bufferView":9,
			"componentType":5126,
			"count":4,
			"type":"VEC3"
		},
		{
			"bufferView":10,
			"componentType":5126,
			"count":4,
			"type":"VEC2"
		},
		{
			"bufferView":11,
			"componentType":5123,
			"count":6,
			"type":"SCALAR"
		},
		{
			"bufferView":12,
			"componentType":5126,
			"count":192,
			"max":[
				1,
				1,
				1
			],
			"min":[
				-1,
				-1,
				-1
			],
			"type":"VEC3"
		},
		{
			"bufferView":13,
			"componentType":5126,
			"count":192,
			"type":"VEC3"
		},
		{
			"bufferView":14,
			"componentType":5126,
			"count":192,
			"type":"VEC2"
		},
		{
			"bufferView":15,
			"componentType":5123,
			"count":372,
			"type":"SCALAR"
		},
		{
			"bufferView":16,
			"componentType":5126,
			"count":192,
			"max":[
				1,
				1,
				1
			],
			"min":[
				-1,
				-1,
				-1
			],
			"type":"VEC3"
		},
		{
			"bufferView":17,
			"componentType":5126,
			"count":192,
			"type":"VEC3"
		},
		{
			"bufferView":18,
			"componentType":5126,
			"count":192,
			"type":"VEC2"
		},
		{
			"bufferView":19,
			"componentType":5126,
			"count":4,
			"max":[
				0.4346405267715454,
				0,
				0.5
			],
			"min":[
				-0.4346405267715454,
				0,
				-0.5
			],
			"type":"VEC3"
		},
		{
			"bufferView":20,
			"componentType":5126,
			"count":4,
			"type":"VEC3"
		},
		{
			"bufferView":21,
			"componentType":5126,
			"count":4,
			"type":"VEC2"
		},
		{
			"bufferView":22,
			"componentType":5123,
			"count":6,
			"type":"SCALAR"
		},
		{
			"bufferView":23,
			"componentType":5126,
			"count":192,
			"max":[
				1,
				1,
				1
			],
			"min":[
				-1,
				-1,
				-1
			],
			"type":"VEC3"
		},
		{
			"bufferView":24,
			"componentType":5126,
			"count":192,
			"type":"VEC3"
		},
		{
			"bufferView":25,
			"componentType":5126,
			"count":192,
			"type":"VEC2"
		},
		{
			"bufferView":26,
			"componentType":5126,
			"count":192,
			"max":[
				1,
				1,
				1
			],
			"min":[
				-1,
				-1,
				-1
			],
			"type":"VEC3"
		},
		{
			"bufferView":27,
			"componentType":5126,
			"count":192,
			"type":"VEC3"
		},
		{
			"bufferView":28,
			"componentType":5126,
			"count":192,
			"type":"VEC2"
		}
	],
	"bufferViews":[
		{
			"buffer":0,
			"byteLength":1536,
			"byteOffset":0,
			"target":34962
		},
		{
			"buffer":0,
			"byteLength":1536,
			"byteOffset":1536,
			"target":34962
		},
		{
			"buffer":0,
			"byteLength":1024,
			"byteOffset":3072,
			"target":34962
		},
		{
			"buffer":0,
			"byteLength":372,
			"byteOffset":4096,
			"target":34963
		},
		{
			"buffer":0,
			"byteLength":240,
			"byteOffset":4468,
			"target":34962
		},
		{
			"buffer":0,
			"byteLength":240,
			"byteOffset":4708,
			"target":34962
		},
		{
			"buffer":0,
			"byteLength":160,
			"byteOffset":4948,
			"target":34962
		},
		{
			"buffer":0,
			"byteLength":60,
			"byteOffset":5108,
			"target":34963
		},
		{
			"buffer":0,
			"byteLength":48,
			"byteOffset":5168,
			"target":34962
		},
		{
			"buffer":0,
			"byteLength":48,
			"byteOffset":5216,
			"target":34962
		},
		{
			"buffer":0,
			"byteLength":32,
			"byteOffset":5264,
			"target":34962
		},
		{
			"buffer":0,
			"byteLength":12,
			"byteOffset":5296,
			"target":34963
		},
		{
			"buffer":0,
			"byteLength":2304,
			"byteOffset":5308,
			"target":34962
		},
		{
			"buffer":0,
			"byteLength":2304,
			"byteOffset":7612,
			"target":34962
		},
		{
			"buffer":0,
			"byteLength":1536,
			"byteOffset":9916,
			"target":34962
		},
		{
			"buffer":0,
			"byteLength":744,
			"byteOffset":11452,
			"target":34963
		},
		{
			"buffer":0,
			"byteLength":2304,
			"byteOffset":12196,
			"target":34962
		},
		{
			"buffer":0,
			"byteLength":2304,
			"byteOffset":14500,
			"target":34962
		},
		{
			"buffer":0,
			"byteLength":1536,
			"byteOffset":16804,
			"target":34962
		},
		{
			"buffer":0,
			"byteLength":48,
			"byteOffset":18340,
			"target":34962
		},
		{
			"buffer":0,
			"byteLength":48,
			"byteOffset":18388,
			"target":34962
		},
		{
			"buffer":0,
			"byteLength":32,
			"byteOffset":18436,
			"target":34962
		},
		{
			"buffer":0,
			"byteLength":12,
			"byteOffset":18468,
			"target":34963
		},
		{
			"buffer":0,
			"byteLength":2304,
			"byteOffset":18480,
			"target":34962
		},
		{
			"buffer":0,
			"byteLength":2304,
			"byteOffset":20784,
			"target":34962
		},
		{
			"buffer":0,
			"byteLength":1536,
			"byteOffset":23088,
			"target":34962
		},
		{
			"buffer":0,
			"byteLength":2304,
			"byteOffset":24624,
			"target":34962
		},
		{
			"buffer":0,
			"byteLength":2304,
			"byteOffset":26928,
			"target":34962
		},
		{
			"buffer":0,
			"byteLength":1536,
			"byteOffset":29232,
			"target":34962
		}
	],
	"samplers":[
		{
			"magFilter":9729,
			"minFilter":9987
		},
		{
			"magFilter":9729,
			"minFilter":9987,
			"wrapS":33071,
			"wrapT":33071
		}
	],
	"buffers":[
		{
			"byteLength":30768,
			"uri":"untitled.bin"
		}
	]
}
